<svg xmlns="http://www.w3.org/2000/svg" xmlns:xlink="http://www.w3.org/1999/xlink" width="172" height="135" viewBox="0 0 172 135">
    <title>OCTUWEB + Polygon 1 + Polygon 3 + O + 2014 + Line + Line 3</title>
    <desc>Created with Sketch.</desc>
    <defs/>
    <g stroke="none" stroke-width="1" fill="none" fill-rule="evenodd">
        <g transform="translate(-174, -55)">
            <g transform="translate(174, 55)">
                <g transform="translate(45, 0)">
                    <g >
                        <polygon stroke="#EC6060" stroke-width="2" points="40.5,0 69.1,11.9 81,40.5 69.1,69.1 40.5,81 11.9,69.1 0,40.5 11.9,11.9"/>
                        <polygon stroke="#FFFFFF" stroke-width="0.9" fill="#EC6060" points="40.6,4.1 66.4,14.8 77.1,40.6 66.4,66.4 40.6,77.1 14.8,66.4 4.1,40.6 14.8,14.8"/>
                    </g>
                    <path d="M60.0932432 40.7 C60.0932432 14.2 20.8 14.2 20.8 40.7 C20.7972973 67.2 60.1 67.2 60.1 40.7 Z M25.6135135 40.7 C25.6135135 20.1 55.3 20.1 55.3 40.7 C55.3317568 61.2 25.6 61.2 25.6 40.7 Z M54.7844595 40.7 C54.7844595 21.1 26.2 20.7 26.2 40.7 C26.1608108 60.7 54.8 60.3 54.8 40.7 Z M30.8675676 40.7 C30.8675676 26.9 50.1 26.9 50.1 40.7 C50.0777027 54.6 30.9 54.6 30.9 40.7 Z" id="O" fill="#FFFFFF"/>
                </g>
                <path d="M24.4791028 122.4 C24.4791028 105.9 0 105.9 0 122.4 C0 138.9 24.5 138.9 24.5 122.4 Z M6.27319626 122.4 C6.27319626 113.8 18.2 113.8 18.2 122.4 C18.24 131 6.3 131 6.3 122.4 Z M27.6497944 122.3 C27.6838879 130.4 33.8 134.5 39.9 134.5 C44.969271 134.5 50.3 131.8 51.2 125.1 L45.2079252 125.1 C44.5601495 127.6 42.5 128.9 39.9 128.9 C36.2754393 128.9 34 125.8 34 122.3 C33.9570841 118.4 36.3 115.7 39.9 115.7 C42.4463551 115.7 44.3 116.8 45.1 119.2 L51.1060935 119.2 C50.1855701 112.8 44.8 110.1 39.9 110.1 C33.8207103 110.1 27.7 114.2 27.6 122.3 Z M59.3908037 115.9 L59.3908037 134.2 L65.4253458 134.2 L65.4253458 115.9 L71.2553271 115.9 L71.2553271 110.4 L53.526729 110.4 L53.526729 115.9 L59.3908037 115.9 Z M84.279028 129.1 C82.5061682 129.1 80.6 128.1 80.6 126.2 L80.631028 110.4 L74.8010467 110.4 L74.8010467 126.3 C74.8010467 131.5 79.4 134.6 84.3 134.6 C89.188486 134.6 93.7 131.5 93.7 126.3 L93.7229159 110.4 L87.8929346 110.4 L87.8929346 126.2 C87.8929346 128.1 86.1 129.1 84.3 129.1 Z M111.519701 110.8 L107.530766 123.4 L107.428486 123.4 L106.371589 119.4 L103.303178 110.4 L97.1322617 110.4 L97.1322617 111.3 L105.519252 134.5 L108.894505 134.5 L112.712972 123 L112.815252 123 L116.63372 134.5 L120.145346 134.5 L128.430056 111.3 L128.430056 110.4 L122.361421 110.4 L119.327103 119.4 L118.270206 123.4 L118.167925 123.4 L114.110804 110.8 L111.519701 110.8 Z M146.90871 110.4 L132.009869 110.4 L132.009869 134.2 L147.215551 134.2 L147.215551 128.8 L138.078505 128.8 L138.078505 124.6 L146.192748 124.6 L146.192748 119.2 L138.078505 119.2 L138.078505 115.9 L146.90871 115.9 L146.90871 110.4 Z M170.092262 117.7 C170.092262 113.6 166.8 110.4 162.7 110.4 L152.465944 110.4 L152.465944 134.2 L163.648598 134.2 C168.523963 134.2 171 130.9 171.1 126.7 C171.080972 124.6 170.2 122.8 168.2 121.8 C169.376299 120.9 170.1 119.2 170.1 117.7 Z M163.205383 124.8 C165.660112 124.8 165.7 128.8 163.2 128.8 L158.364112 128.8 L158.364112 124.8 L163.205383 124.8 Z M162.182579 115.9 C164.637308 115.9 164.6 119.7 162.2 119.7 L158.364112 119.7 L158.364112 115.9 L162.182579 115.9 Z" fill="#EC6060"/>
            </g>
        </g>
    </g>
</svg>