<svg xmlns="http://www.w3.org/2000/svg" width="320" height="320" viewBox="0 0 320 320">
	<g id="twitter">
		<!-- <circle fill="#00ACEE" cx="16" cy="16" r="16"/> -->
		<path fill="#fff" d="M24.7,13.8c0,0-3.6-10-8.9-1.2c-0.5,0-8.3-3-8.3-3s5,8.9,5.3,9.2c0.4,2.1-8.2,1.3-8.2,1.3s7,5.4,13.8,3.6 c3.3,0,7.3-8,7.3-8l2.3-0.8L24.7,13.8z"/>
	</g>
	<g id="facebook">
		<circle fill="#3B5998" cx="16" cy="16" r="16"/>
    	<path fill="#fff" d="M13.1,27.1V16.4h-2v-4.2h1.8V7.5c0,0,0.4-2.4,3.1-2.3c0.2,0,4.9,0,4.9,0v4.3h-3v2.7h3v3.9H18V27L13.1,27.1 L13.1,27.1z"/>
	</g>
	<g id="vimeo">
		<circle fill="#1AB6E9" cx="16" cy="16" r="16"/>
		<path fill="#fff" d="M26.2,11.6c-0.1,2-1.5,4.8-4.3,8.4c-2.9,3.7-5.3,5.6-7.3,5.6c-1.2,0-2.3-1.1-3.1-3.4 c-0.6-2.1-1.1-4.1-1.7-6.2c-0.6-2.3-1.3-3.4-2-3.4c-0.2,0-0.7,0.3-1.6,1l-1-1.3c1-0.9,2.1-1.8,3.1-2.7c1.4-1.2,2.4-1.8,3.1-1.9 c1.6-0.2,2.6,1,3,3.3c0.4,2.6,0.7,4.2,0.8,4.8c0.5,2.1,1,3.2,1.6,3.2c0.4,0,1.1-0.7,2-2.1c0.9-1.4,1.4-2.4,1.4-3.2 c0.1-1.2-0.3-1.8-1.4-1.8c-0.5,0-1,0.1-1.6,0.3c1-3.4,3-5,5.9-4.9C25.3,7.5,26.4,8.9,26.2,11.6z"/>
	</g>
	<g id="behance">
		<circle fill="#1769FF" cx="16" cy="16" r="16"/>
		<rect x="4.3" y="8.6" fill="#fff" width="3.3" height="14.5"/>
		<rect x="7.5" y="8.6" fill="#fff" width="4.4" height="2.6"/>
		<rect x="7.5" y="20.6" fill="#fff" width="4.4" height="2.6"/>
		<rect x="7.5" y="14.5" fill="#fff" width="4.4" height="2.2"/>
		<path fill="#fff" d="M11.8,23.2c0,0,4.6,0.1,4.6-4.3c0,0,0.2-3.6-2.7-3.6c0,0,2.2-0.2,2.2-2.8s-1.8-3.9-4.1-3.9 c-2.3,0-2.2,1.3-2.2,1.3l1.6,1.3h0.5c0,0,1,0,1,1.5s-0.6,1.7-1.3,1.7c-0.7,0-0.9,1.1-0.9,1.1l1.2,1.1c0,0,1.5,0,1.5,2 s-1.6,1.9-2,1.9c-0.4,0-0.3,1-0.3,1L11.8,23.2z"/>
		<path fill="#fff" d="M22.6,12.3c-5.6,0-5.6,5.6-5.6,5.6s-0.4,5.6,5.6,5.6c0,0,5,0.3,5-3.9H25c0,0,0.1,1.6-2.3,1.6 c0,0-2.6,0.2-2.6-2.5h7.5C27.7,18.6,28.5,12.3,22.6,12.3z M20.1,16.7c0,0,0.3-2.2,2.6-2.2s2.2,2.2,2.2,2.2H20.1z"/>
		<rect x="19.5" y="9.5" fill="#fff" width="6" height="1.8"/>
	</g>
	<g id="codepen">
		<!-- <circle fill="#000" cx="16" cy="16" r="16"/> -->
		<polygon fill="none" stroke="#fff" stroke-width="2" stroke-linejoin="round" points="16.2,6.2 6.2,12.8 16.2,19.6 26.4,12.8"/>
		<polygon fill="none" stroke="#fff" stroke-width="2" stroke-linejoin="round" points="16.2,12.4 6.2,18.9 16.2,25.7 26.4,18.9"/>
		<line stroke="#fff" stroke-width="2" x1="16.2" y1="6.2" x2="16.2" y2="13.3"/>
		<line stroke="#fff" stroke-width="2" x1="16.2" y1="19.6" x2="16.2" y2="24.8"/>
		<line stroke="#fff" stroke-width="2" x1="6.2" y1="12.8" x2="6.2" y2="18.6"/>
		<line stroke="#fff" stroke-width="2" x1="26.4" y1="12.8" x2="26.4" y2="18.6"/>
	</g>
	<g id="googleplus">
		<circle fill="#DB4935" cx="16" cy="16" r="16"/>
	    <path fill="#fff" d="M16.9,8.4c0.2,0.1,0.3,0.3,0.6,0.5c0.3,0.2,0.4,0.4,0.6,0.7c0.2,0.3,0.4,0.6,0.5,1 c0.1,0.4,0.2,0.8,0.2,1.3s-0.1,0.9-0.2,1.3c-0.1,0.4-0.3,0.7-0.5,1c-0.2,0.3-0.4,0.6-0.7,0.8s-0.5,0.5-0.8,0.7 c-0.2,0.2-0.3,0.4-0.5,0.6c-0.2,0.2-0.2,0.4-0.2,0.7s0.1,0.5,0.2,0.7c0.2,0.2,0.3,0.3,0.4,0.4l1,0.7c0.3,0.2,0.6,0.5,0.8,0.7 c0.3,0.2,0.5,0.5,0.7,0.8c0.2,0.3,0.4,0.6,0.5,1c0.1,0.4,0.2,0.8,0.2,1.2c0,0.6-0.2,1.2-0.4,1.8c-0.2,0.6-0.7,1.1-1.3,1.6 c-0.6,0.5-1.3,0.8-2.2,1.1c-0.9,0.3-1.9,0.4-3,0.4c-1,0-1.8-0.1-2.5-0.3c-0.7-0.2-1.3-0.5-1.8-0.8c-0.5-0.4-0.8-0.8-1.1-1.2 c-0.2-0.4-0.3-0.9-0.3-1.4s0.1-1,0.4-1.6c0.3-0.6,0.8-1.1,1.6-1.6c0.4-0.2,0.8-0.4,1.3-0.6c0.5-0.1,0.9-0.3,1.4-0.4 s0.9-0.1,1.3-0.2c0.4,0,0.8-0.1,1.1-0.1c-0.2-0.2-0.4-0.5-0.5-0.8c-0.2-0.3-0.3-0.6-0.3-1c0-0.2,0-0.4,0.1-0.6 c0.1-0.1,0.1-0.3,0.2-0.5c-0.1,0-0.3,0-0.4,0c-0.1,0-0.3,0-0.4,0c-0.7,0-1.3-0.1-1.9-0.4c-0.5-0.2-1-0.5-1.4-0.9 c-0.4-0.4-0.7-0.8-0.8-1.3c-0.2-0.5-0.3-1-0.3-1.5c0-0.6,0.1-1.2,0.4-1.9c0.3-0.6,0.7-1.2,1.3-1.7c0.8-0.6,1.6-1,2.4-1.2 c0.8-0.2,1.6-0.3,2.3-0.3h5.4L18.6,8h-1.7V8.4z M17.9,23.6c0-0.3-0.1-0.6-0.2-0.9c-0.1-0.3-0.3-0.5-0.5-0.8 c-0.2-0.3-0.5-0.5-0.9-0.8c-0.4-0.3-0.8-0.6-1.3-1c-0.1,0-0.2,0-0.3,0s-0.2,0-0.3,0c-0.1,0-0.2,0-0.4,0s-0.4,0-0.7,0.1 c-0.3,0.1-0.5,0.1-0.8,0.1c-0.3,0.1-0.6,0.1-0.9,0.2c-0.1,0.1-0.3,0.1-0.6,0.3c-0.3,0.1-0.5,0.3-0.8,0.5c-0.2,0.2-0.5,0.5-0.6,0.8 c-0.2,0.3-0.3,0.7-0.3,1.2c0,1,0.4,1.7,1.3,2.3c0.8,0.6,2,0.9,3.4,0.9c1.3,0,2.2-0.3,2.9-0.8S17.9,24.4,17.9,23.6z M14,15.8 c0.3,0,0.7-0.1,1-0.2c0.3-0.1,0.6-0.3,0.8-0.5c0.3-0.3,0.5-0.6,0.6-1c0.1-0.4,0.1-0.7,0.1-0.9c0-0.5-0.1-1-0.2-1.6 c-0.1-0.6-0.4-1.1-0.6-1.6c-0.3-0.5-0.6-0.9-1-1.2c-0.4-0.3-0.9-0.5-1.4-0.5c-0.4,0-0.7,0.1-1,0.2c-0.3,0.2-0.6,0.4-0.8,0.6 C11.3,9.4,11.1,9.7,11,10c-0.1,0.3-0.1,0.7-0.1,1c0,0.4,0.1,0.9,0.2,1.5c0.1,0.6,0.3,1.1,0.6,1.5c0.3,0.5,0.6,0.9,1,1.2 C12.9,15.7,13.4,15.8,14,15.8z"/>
	    <line stroke="#fff" x1="19.8" y1="11.5" x2="28.3" y2="11.5"/>
	    <line stroke="#fff" x1="24" y1="7.2" x2="24" y2="15.8"/>
	</g>
	<g id="dribbble">
		<circle fill="#fff" cx="16" cy="16" r="16"/>
	    <circle fill="#EA4C89" stroke="#C32361" stroke-width="2" cx="16.2" cy="16.1" r="10.6"/>
	    <path fill="none" stroke="#C32361" stroke-width="2" d="M21.3,25.4c-1.2-9.5-9.8-18.7-9.8-18.7"/>
	    <path fill="none" stroke="#C32361" stroke-width="2" d="M5.8,14.5C17.9,17,22.7,7.8,22.7,7.8"/>
	    <path fill="none" stroke="#C32361" stroke-width="2" d="M8.3,23.2c6.1-9.8,18.5-6.6,18.5-6.6"/>
	</g>
	<g id="github">
		<path fill="#121" d="M16,0C7.2,0,0,7.2,0,16c0,7.1,4.6,13.1,11,15.2 c0.8,0.1,1.1-0.3,1.1-0.8c0-0.4,0-1.4,0-2.7c-4.5,1-5.4-2.1-5.4-2.1c-0.7-1.8-1.8-2.3-1.8-2.3c-1.5-1,0.1-1,0.1-1 c1.6,0.1,2.5,1.7,2.5,1.7c1.4,2.4,3.7,1.7,4.7,1.3c0.1-1,0.6-1.7,1-2.1c-3.6-0.4-7.3-1.8-7.3-7.9c0-1.7,0.6-3.2,1.6-4.3 c-0.2-0.4-0.7-2,0.2-4.2c0,0,1.3-0.4,4.4,1.6c1.3-0.4,2.6-0.5,4-0.5c1.4,0,2.7,0.2,4,0.5c3.1-2.1,4.4-1.6,4.4-1.6 c0.9,2.2,0.3,3.8,0.2,4.2c1,1.1,1.6,2.5,1.6,4.3c0,6.2-3.7,7.5-7.3,7.9c0.6,0.5,1.1,1.5,1.1,3c0,2.1,0,3.9,0,4.4 c0,0.4,0.3,0.9,1.1,0.8C27.4,29.1,32,23.1,32,16C32,7.2,24.9,0,16,0z"/>
	</g>
</svg>