<?xml version="1.0" encoding="utf-8"?>
<!-- Generator: Adobe Illustrator 17.1.0, SVG Export Plug-In . SVG Version: 6.00 Build 0)  -->
<!DOCTYPE svg PUBLIC "-//W3C//DTD SVG 1.1//EN" "http://www.w3.org/Graphics/SVG/1.1/DTD/svg11.dtd">
<svg version="1.1" id="Capa_1" xmlns="http://www.w3.org/2000/svg" xmlns:xlink="http://www.w3.org/1999/xlink" x="0px" y="0px"
	 width="74px" height="409px" viewBox="0 0 74 409" enable-background="new 0 0 74 409" xml:space="preserve">
<g>
	<circle fill="#1769FF" cx="36.8" cy="159" r="16"/>
	<path fill="#FFFFFF" d="M25.1,151.6h3.3v14.5h-3.3V151.6z M28.3,151.6h4.4v2.6h-4.4L28.3,151.6z M28.3,163.6h4.4v2.6h-4.4
		L28.3,163.6z M28.3,157.5h4.4v2.2h-4.4L28.3,157.5z M32.6,166.2c0,0,4.6,0.1,4.6-4.3c0,0,0.2-3.6-2.7-3.6c0,0,2.2-0.2,2.2-2.8
		s-1.8-3.9-4.1-3.9l-2.2,1.3l1.6,1.3h0.5c0,0,1,0,1,1.5s-0.6,1.7-1.3,1.7s-0.9,1.1-0.9,1.1l1.2,1.1c0,0,1.5,0,1.5,2s-1.6,1.9-2,1.9
		l-0.3,1L32.6,166.2z M43.4,155.3c-5.6,0-5.6,5.6-5.6,5.6s-0.4,5.6,5.6,5.6c0,0,5,0.3,5-3.9h-2.6c0,0,0.1,1.6-2.3,1.6
		c0,0-2.6,0.2-2.6-2.5h7.5C48.5,161.6,49.3,155.3,43.4,155.3L43.4,155.3z M40.9,159.7c0,0,0.3-2.2,2.6-2.2s2.2,2.2,2.2,2.2H40.9z
		 M40.3,152.5h6v1.8h-6V152.5z"/>
</g>
<g>
	<circle cx="37" cy="245" r="16"/>
	<path fill="none" stroke="#FFFFFF" stroke-width="2" stroke-linejoin="round" d="M37.2,235.2l-10,6.6l10,6.8l10.2-6.8L37.2,235.2z
		 M37.2,241.4l-10,6.5l10,6.8l10.2-6.8L37.2,241.4z"/>
	<path fill="none" stroke="#FFFFFF" stroke-width="2" d="M37.2,235.2v7.1 M37.2,248.6v5.2 M27.2,241.8v5.8 M47.4,241.8v5.8"/>
</g>
<g>
	<circle fill="#FFFFFF" cx="37" cy="202" r="16"/>
	<circle fill="#EA4C89" stroke="#C32361" stroke-width="2" cx="37.2" cy="202.1" r="10.6"/>
	<path fill="none" stroke="#C32361" stroke-width="2" d="M42.3,211.4c-1.2-9.5-9.8-18.7-9.8-18.7 M26.8,200.5
		c12.1,2.5,16.9-6.7,16.9-6.7 M29.3,209.2c6.1-9.8,18.5-6.6,18.5-6.6"/>
</g>
<g>
	<circle fill="#3B5998" cx="37" cy="74" r="16"/>
	<path fill="#FFFFFF" d="M34.1,85.1V74.4h-2v-4.2h1.8v-4.7c0,0,0.4-2.4,3.1-2.3h4.9v4.3h-3v2.7h3v3.9H39V85L34.1,85.1z"/>
</g>
<g>
	<circle fill="#DB4935" cx="37" cy="287" r="16"/>
	<path fill="#FFFFFF" d="M37.9,279.4l0.6,0.5c0.3,0.2,0.4,0.4,0.6,0.7c0.2,0.3,0.4,0.6,0.5,1s0.2,0.8,0.2,1.3s-0.1,0.9-0.2,1.3
		s-0.3,0.7-0.5,1s-0.4,0.6-0.7,0.8l-0.8,0.7l-0.5,0.6c-0.2,0.2-0.2,0.4-0.2,0.7s0.1,0.5,0.2,0.7l0.4,0.4l1,0.7
		c0.3,0.2,0.6,0.5,0.8,0.7c0.3,0.2,0.5,0.5,0.7,0.8s0.4,0.6,0.5,1s0.2,0.8,0.2,1.2c0,0.6-0.2,1.2-0.4,1.8c-0.2,0.6-0.7,1.1-1.3,1.6
		s-1.3,0.8-2.2,1.1s-1.9,0.4-3,0.4c-1,0-1.8-0.1-2.5-0.3c-0.7-0.2-1.3-0.5-1.8-0.8c-0.5-0.4-0.8-0.8-1.1-1.2
		c-0.2-0.4-0.3-0.9-0.3-1.4s0.1-1,0.4-1.6s0.8-1.1,1.6-1.6c0.4-0.2,0.8-0.4,1.3-0.6l1.4-0.4c0,0,0.9-0.1,1.3-0.2
		c0.4,0,0.8-0.1,1.1-0.1c-0.2-0.2-0.4-0.5-0.5-0.8c-0.2-0.3-0.3-0.6-0.3-1c0-0.2,0-0.4,0.1-0.6c0.1-0.1,0.1-0.3,0.2-0.5h-0.8
		c-0.7,0-1.3-0.1-1.9-0.4c-0.5-0.2-1-0.5-1.4-0.9s-0.7-0.8-0.8-1.3c-0.2-0.5-0.3-1-0.3-1.5c0-0.6,0.1-1.2,0.4-1.9
		c0.3-0.6,0.7-1.2,1.3-1.7c0.8-0.6,1.6-1,2.4-1.2s1.6-0.3,2.3-0.3h5.4l-1.7,0.9h-1.7L37.9,279.4L37.9,279.4z M38.9,294.6
		c0-0.3-0.1-0.6-0.2-0.9c-0.1-0.3-0.3-0.5-0.5-0.8s-0.5-0.5-0.9-0.8s-0.8-0.6-1.3-1h-1c-0.2,0-0.4,0-0.7,0.1s-0.5,0.1-0.8,0.1
		l-0.9,0.2c-0.1,0.1-0.3,0.1-0.6,0.3c-0.3,0.1-0.5,0.3-0.8,0.5c-0.2,0.2-0.5,0.5-0.6,0.8c-0.2,0.3-0.3,0.7-0.3,1.2
		c0,1,0.4,1.7,1.3,2.3c0.8,0.6,2,0.9,3.4,0.9c1.3,0,2.2-0.3,2.9-0.8S38.9,295.4,38.9,294.6L38.9,294.6z M35,286.8
		c0.3,0,0.7-0.1,1-0.2s0.6-0.3,0.8-0.5c0.3-0.3,0.5-0.6,0.6-1s0.1-0.7,0.1-0.9c0-0.5-0.1-1-0.2-1.6s-0.4-1.1-0.6-1.6
		c-0.3-0.5-0.6-0.9-1-1.2c-0.4-0.3-0.9-0.5-1.4-0.5c-0.4,0-0.7,0.1-1,0.2c-0.3,0.2-0.6,0.4-0.8,0.6c-0.2,0.3-0.4,0.6-0.5,0.9
		c-0.1,0.3-0.1,0.7-0.1,1c0,0.4,0.1,0.9,0.2,1.5s0.3,1.1,0.6,1.5c0.3,0.5,0.6,0.9,1,1.2C33.9,286.7,34.4,286.8,35,286.8z"/>
	<path fill="none" stroke="#FFFFFF" d="M40.8,282.5h8.5 M45,278.2v8.6"/>
</g>
<g>
	<circle fill="#00ACEE" cx="37" cy="30" r="16"/>
	<path fill="#FFFFFF" d="M45.7,27.8c0,0-3.6-10-8.9-1.2c-0.5,0-8.3-3-8.3-3s5,8.9,5.3,9.2c0.4,2.1-8.2,1.3-8.2,1.3s7,5.4,13.8,3.6
		c3.3,0,7.3-8,7.3-8l2.3-0.8C49,28.9,45.7,27.8,45.7,27.8z"/>
</g>
<g id="vimeo">
	<circle fill="#1AB6E9" cx="37" cy="116" r="16"/>
	<path fill="#FFFFFF" d="M47.2,111.6c-0.1,2-1.5,4.8-4.3,8.4c-2.9,3.7-5.3,5.6-7.3,5.6c-1.2,0-2.3-1.1-3.1-3.4
		c-0.6-2.1-1.1-4.1-1.7-6.2c-0.6-2.3-1.3-3.4-2-3.4c-0.2,0-0.7,0.3-1.6,1l-1-1.3c1-0.9,2.1-1.8,3.1-2.7c1.4-1.2,2.4-1.8,3.1-1.9
		c1.6-0.2,2.6,1,3,3.3c0.4,2.6,0.7,4.2,0.8,4.8c0.5,2.1,1,3.2,1.6,3.2c0.4,0,1.1-0.7,2-2.1s1.4-2.4,1.4-3.2c0.1-1.2-0.3-1.8-1.4-1.8
		c-0.5,0-1,0.1-1.6,0.3c1-3.4,3-5,5.9-4.9C46.3,107.5,47.4,108.9,47.2,111.6z"/>
</g>
<path d="M37,311.3c-8.8,0-16,7.2-16,16c0,7.1,4.6,13.1,11,15.2c0.8,0.1,1.1-0.3,1.1-0.8c0-0.4,0-1.4,0-2.7c-4.5,1-5.4-2.1-5.4-2.1
	c-0.7-1.8-1.8-2.3-1.8-2.3c-1.5-1,0.1-1,0.1-1c1.6,0.1,2.5,1.7,2.5,1.7c1.4,2.4,3.7,1.7,4.7,1.3c0.1-1,0.6-1.7,1-2.1
	c-3.6-0.4-7.3-1.8-7.3-7.9c0-1.7,0.6-3.2,1.6-4.3c-0.2-0.4-0.7-2,0.2-4.2c0,0,1.3-0.4,4.4,1.6c1.3-0.4,2.6-0.5,4-0.5
	c1.4,0,2.7,0.2,4,0.5c3.1-2.1,4.4-1.6,4.4-1.6c0.9,2.2,0.3,3.8,0.2,4.2c1,1.1,1.6,2.5,1.6,4.3c0,6.2-3.7,7.5-7.3,7.9
	c0.6,0.5,1.1,1.5,1.1,3c0,2.1,0,3.9,0,4.4c0,0.4,0.3,0.9,1.1,0.8c6.2-2.3,10.8-8.3,10.8-15.4C53,318.5,45.9,311.3,37,311.3z"/>
</svg>
